<svg width="21" height="21" viewBox="0 0 80 80" fill="none" xmlns="http://www.w3.org/2000/svg">
  <path fill-rule="evenodd" clip-rule="evenodd"
    d="M39.4117 0.00796786C39.6029 0.00265595 39.7968 0 39.996 0C51.7566 0.0504631 65.4162 2.02649 80 7.79788C80 7.79788 79.5432 9.21351 77.7584 12.4246C64.46 6.62661 51.4644 4.77275 40.1049 4.84712H40.0066C28.6206 4.76213 15.5851 6.61067 2.24163 12.4246C0.456824 9.21616 0 7.79788 0 7.79788C14.3395 2.12476 27.7813 0.119518 39.4117 0.00796786ZM39.9976 17.7877L31.7599 7.75539C31.7599 7.75539 17.6037 8.04754 3.51648 14.5785C7.12592 19.9993 14.2864 22.6659 14.2864 22.6659C14.7724 17.8905 18.1375 16.7219 28.8065 16.7219L39.9987 79.676L51.1909 16.7192C61.8625 16.7192 65.2249 17.8905 65.711 22.6633C65.711 22.6633 72.8714 19.994 76.4809 14.5759C62.3937 8.04754 48.2374 7.75273 48.2374 7.75273L39.9976 17.7877Z"
    fill="#000" />
</svg>