<svg width="24" height="24" viewBox="0 0 24 24" fill="none" xmlns="http://www.w3.org/2000/svg">
  <path
    d="M8.5 5.5C8.5 3.567 10.067 2 12 2C13.933 2 15.5 3.567 15.5 5.5V12C15.5 13.933 13.933 15.5 12 15.5C10.067 15.5 8.5 13.933 8.5 12V5.5ZM6.5 11.25C6.91421 11.25 7.25 11.5858 7.25 12C7.25 14.6234 9.37665 16.75 12 16.75C14.6234 16.75 16.75 14.6234 16.75 12C16.75 11.5858 17.0858 11.25 17.5 11.25C17.9142 11.25 18.25 11.5858 18.25 12C18.25 15.198 15.8482 17.8349 12.75 18.2055V21.25C12.75 21.6642 12.4142 22 12 22C11.5858 22 11.25 21.6642 11.25 21.25V18.2055C8.15183 17.8349 5.75 15.198 5.75 12C5.75 11.5858 6.08579 11.25 6.5 11.25Z"
    fill="#171A20" />
</svg>