<svg width="24" height="24" viewBox="0 0 24 24" fill="none" xmlns="http://www.w3.org/2000/svg">
<path fill-rule="evenodd" clip-rule="evenodd" d="M12 1C9.51472 1 7.5 3.01472 7.5 5.5V7H6.5C5.11929 7 4 8.11929 4 9.5V18.5C4 19.8807 5.11929 21 6.5 21H17.5C18.8807 21 20 19.8807 20 18.5V9.5C20 8.11929 18.8807 7 17.5 7H16.5V5.5C16.5 3.01472 14.4853 1 12 1ZM15 8.5V10.25C15 10.6642 15.3358 11 15.75 11C16.1642 11 16.5 10.6642 16.5 10.25V8.5H17.5C18.0523 8.5 18.5 8.94772 18.5 9.5V18.5C18.5 19.0523 18.0523 19.5 17.5 19.5H6.5C5.94772 19.5 5.5 19.0523 5.5 18.5V9.5C5.5 8.94772 5.94772 8.5 6.5 8.5H7.5V10.25C7.5 10.6642 7.83579 11 8.25 11C8.66421 11 9 10.6642 9 10.25V8.5H15ZM15 7V5.5C15 3.84315 13.6569 2.5 12 2.5C10.3431 2.5 9 3.84315 9 5.5V7H15Z" fill="#171A20"/>
</svg>
